# xmcd
#
# Track frame offsets:
#	150
#	13265
#	24195
#	39288
#	54270
#	69350
#	84528
#	97580
#	111143
#	121840
#	139988
#	150200
#	162578
#	177730
#	189270
#	201470
#	213173
#	223568
#
# Disc length: 3109
#
# Revision: 1
# Processed by: cddbd v1.5.1PL0 Copyright (c) Steve Scherf et al.
# Submitted via: dBpowerAMP V4.0
# Normalized: r0:TDELIM( - )
#
DISCID=e90c2312
DTITLE=Kenny and Dolly - The Natural Collection CD1
DYEAR=1900
DGENRE=Country
TTITLE0=Kenny Rogers - Ruby
TTITLE1=Dolly Parton - Honky Tonk Angels
TTITLE2=Kenny Rogers - Just Dropped In
TTITLE3=Kenny Rogers - Heed The Call
TTITLE4=Kenny Rogers - Tell It All Brother
TTITLE5=Kenny Rogers - For The Good Times
TTITLE6=Dolly Parton - Little Blossom
TTITLE7=Kenny Rogers - I`m Gonna Sing You A Sad Song Suzy
TTITLE8=Kenny Rogers - Last Few Threads Of Love
TTITLE9=Kenny Rogers - The King Of Oak Street
TTITLE10=Dolly Parton - Release Me
TTITLE11=Kenny Rogers - Shadow In The Corner Of Your Mind
TTITLE12=Kenny Rogers - My Washington Woman
TTITLE13=Kenny Rogers - Poem For A Little Lady
TTITLE14=Dolly Parton - Two Little Orphans
TTITLE15=Kenny Rogers - I Just Wanna Give My Lone To You
TTITLE16=Kenny Rogers - Ticket To Nowhere
TTITLE17=Kenny Rogers - Where Does Rosie Go
EXTD=
EXTT0=
EXTT1=
EXTT2=
EXTT3=
EXTT4=
EXTT5=
EXTT6=
EXTT7=
EXTT8=
EXTT9=
EXTT10=
EXTT11=
EXTT12=
EXTT13=
EXTT14=
EXTT15=
EXTT16=
EXTT17=
PLAYORDER=
